# xmcd
#
# Track frame offsets:
#	150
#	12790
#	24757
#	40065
#	57462
#	72982
#	92247
#	106350
#	124000
#	138347
#	155302
#	168212
#	182177
#	197615
#
# Disc length: 2820
#
# Revision: 3
# Processed by: cddbd v1.5.1PL0 Copyright (c) Steve Scherf et al.
# Submitted via: audiograbber 1.83.01
# Normalized: r2:DSETVAR1
#
DISCID=b10b020e
DTITLE=Various Artist - Mr Music Country 1994-02
DYEAR=1994
DGENRE=Country
TTITLE0=Bob Angello - It's the Big One
TTITLE1=Carlene Carter - Hallelujah in My Heart
TTITLE2=Steve Wariner - Missing You
TTITLE3=Paul Overstreet - Head over Heels
TTITLE4=Clay Walker - Dreaming with My Eyes Open
TTITLE5=Tim Mensy - The Grandpa That I Know
TTITLE6=Waylon Jennings - A Bad Day
TTITLE7=Doug Supernaw - Red and Rio Grande
TTITLE8=Kim Perry - Why Are All the Good Ones Gone
TTITLE9=Turner and Nichols - Harleys and Horses
TTITLE10=Lari White - Where the Lights Are Low
TTITLE11=Lee R. Parnell - Country down to My Soul
TTITLE12=Tony Pritchett - Cheatin' Is so Easy
TTITLE13=Kenny Rogers - Ol' Red
EXTD=
EXTT0=
EXTT1=
EXTT2=
EXTT3=
EXTT4=
EXTT5=
EXTT6=
EXTT7=
EXTT8=
EXTT9=
EXTT10=
EXTT11=
EXTT12=
EXTT13=
PLAYORDER=
